<svg xmlns="http://www.w3.org/2000/svg" viewBox="0 0 512 512" role="img">
  <defs>
    <linearGradient id="g" x1="0" x2="1">
      <stop offset="0" stop-color="#9b2c2c"/>
      <stop offset="1" stop-color="#7a2222"/>
    </linearGradient>
  </defs>
  <circle cx="256" cy="256" r="246" fill="#0f0f0f" stroke="#c9a86a" stroke-width="20"/>
  <circle cx="256" cy="256" r="206" fill="url(#g)" stroke="#c9a86a" stroke-width="12"/>
  <path fill="#0f0f0f" d="M350 340c30-72-14-134-78-154-7-2-13-2-20-2-7-10-16-18-26-24 0 0 44-6 74 10 20 10 41 32 49 56 15-23 12-52-10-88-3-5 22 6 37 25 16 21 21 45 16 71 23 13 35 37 32 64-4 33-29 59-62 63-10 1-8-7-12-21z"/>
</svg>

